<?xml version="1.0" encoding="UTF-8" standalone="no"?>
<!-- Created with Inkscape (http://www.inkscape.org/) -->

<svg
   width="76.537003mm"
   height="78.308998mm"
   viewBox="0 0 76.537003 78.308998"
   version="1.1"
   id="svg25555"
   inkscape:version="1.1.1 (3bf5ae0d25, 2021-09-20)"
   sodipodi:docname="LogoV1.svg"
   xmlns:inkscape="http://www.inkscape.org/namespaces/inkscape"
   xmlns:sodipodi="http://sodipodi.sourceforge.net/DTD/sodipodi-0.dtd"
   xmlns="http://www.w3.org/2000/svg"
   xmlns:svg="http://www.w3.org/2000/svg">
  <sodipodi:namedview
     id="namedview25557"
     pagecolor="#ffffff"
     bordercolor="#666666"
     borderopacity="1.0"
     inkscape:pageshadow="2"
     inkscape:pageopacity="0.0"
     inkscape:pagecheckerboard="0"
     inkscape:document-units="mm"
     showgrid="false"
     inkscape:zoom="0.74118967"
     inkscape:cx="358.2079"
     inkscape:cy="301.54225"
     inkscape:window-width="1920"
     inkscape:window-height="1017"
     inkscape:window-x="-8"
     inkscape:window-y="-8"
     inkscape:window-maximized="1"
     inkscape:current-layer="layer1" />
  <defs
     id="defs25552" />
  <g
     inkscape:label="Calque 1"
     inkscape:groupmode="layer"
     id="layer1">
    <path
       style="fill:#4d4d4d;fill-opacity:1;stroke-width:0.0343443"
       d="m 36.374076,60.970519 c -3.08357,-0.17391 -5.41766,-0.75514 -5.84469,-1.45542 -0.0829,-0.13586 -0.0829,-0.3513 0,-0.48717 0.20558,-0.33713 0.93778,-0.68612 1.96859,-0.93829 0.46208,-0.11303 1.19814,-0.25147 1.22015,-0.22947 0.007,0.008 -0.0375,0.0247 -0.10026,0.0381 -0.27461,0.0583 -0.78775,0.24087 -1.03242,0.36736 -0.6706,0.34667 -0.6706,0.73893 0,1.08382 0.99967,0.51414 2.98652,0.8075 5.46895,0.8075 1.66298,0 2.89336,-0.10698 4.05264,-0.35236 1.86964,-0.39576 2.43698,-1.0113 1.41778,-1.53821 -0.24589,-0.12713 -0.7587,-0.30971 -1.03387,-0.36811 -0.0627,-0.0133 -0.10788,-0.0305 -0.10026,-0.0381 0.0516,-0.0515 1.46279,0.27028 1.99028,0.45389 0.84572,0.29437 1.26322,0.61082 1.26322,0.95746 0,0.74632 -1.99187,1.38028 -5.18572,1.65046 -0.74988,0.0634 -3.28598,0.0936 -4.08448,0.0485 z"
       id="path8249"
       sodipodi:nodetypes="cscsccsssssssssscc" />
    <path
       style="fill:#ff9211;fill-opacity:1;stroke-width:0.204544"
       d="m 37.461836,57.476529 c -0.3933,-0.71134 -1.18481,-2.17127 -1.75883,-3.24429 l -1.04373,-1.95092 2.70445,-0.24392 c 1.48748,-0.13418 3.18772,-0.37546 3.77834,-0.53622 0.59062,-0.16081 1.07384,-0.25254 1.07384,-0.20397 0,0.28109 -3.53572,6.93491 -3.88138,7.30431 -0.0866,0.0926 -0.47934,-0.41364 -0.87269,-1.12498 z m -6.25304,-12.63412 c -0.85485,-2.00258 -2.49272,-6.37738 -2.49272,-6.65814 0,-0.0339 0.85139,0.20623 1.89204,0.5338 1.0406,0.32755 3.91701,1.14314 6.39195,1.81243 2.47496,0.66928 4.94817,1.35274 5.49602,1.5188 2.89924,0.8788 2.54834,3.02359 -0.65729,4.01741 -1.56035,0.48374 -4.52705,0.93134 -7.50844,1.13281 l -2.05605,0.13902 z m 16.3002,-7.87723 c -0.0511,-0.0513 -2.39071,-0.74844 -5.1988,-1.54928 -5.04304,-1.43824 -6.24751,-1.92017 -6.64224,-2.65773 -0.49,-0.91559 -0.0704,-2.0154 0.99525,-2.60901 0.41028,-0.22855 2.40275,-0.93855 4.42773,-1.57779 2.02496,-0.63927 4.34159,-1.3755 5.14803,-1.63608 l 1.46628,-0.47382 0.20618,0.54284 c 0.65964,1.73696 0.74714,2.32725 0.74739,5.04277 1.6e-4,3.61567 -0.46441,5.60347 -1.14982,4.9181 z m -19.40655,-8.51011 c 0,-0.45042 0.94606,-2.64941 1.5454,-3.59207 2.11248,-3.32266 5.97657,-4.9945 10.17229,-4.40115 1.56797,0.22173 4.18481,1.21178 4.63424,1.75331 0.13883,0.16733 -0.47527,0.3666 -2.19897,0.71325 -4.7326,0.9518 -9.89772,2.87502 -12.66999,4.71768 -0.81563,0.5421 -1.48297,0.90614 -1.48297,0.80898 z"
       id="path5283-3" />
    <path
       style="fill:#4d4d4d;fill-opacity:1;stroke-width:0.264583"
       d="m 21.382626,6.1548238 c -0.35164,0.850111 -0.76421,1.053094 -2.05294,1.010092 -3.59719,-0.120028 -7.21875,1.215235 -9.619,3.5465062 -2.1225103,2.06153 -3.2885303,4.380715 -4.0682803,8.091677 -0.15674,0.74592 -0.32398,0.96091 -0.91606,1.17765 -0.58356,0.21362 -0.85397,0.13174 -1.39128,-0.42131 -0.60845,-0.62618 -0.63453,-0.83783 -0.29713,-2.41145 0.74727,-3.48561 2.96216,-7.2451187 5.49099,-9.3202892 2.5181503,-2.066409 6.3381903,-3.427388 9.9365503,-3.540146 1.74722,-0.05475 2.06672,0.02417 2.56729,0.634182 0.39356,0.479427 0.50256,0.86395 0.34986,1.233088 z m -0.67625,6.5321632 c -0.0821,0.83309 -0.70946,1.249089 -1.95037,1.293258 -3.20954,0.114225 -5.45048,1.953156 -6.18895,5.078684 -0.28551,1.20842 -0.81596,1.74253 -1.64905,1.66045 -1.45712,-0.14358 -1.61333,-2.21057 -0.36028,-4.767503 0.82537,-1.684271 3.73019,-4.067982 5.54317,-4.548755 2.75229,-0.729887 4.74905,-0.173261 4.60548,1.283866 z"
       id="path5075-7-88"
       sodipodi:nodetypes="ssssssssssssssssss" />
    <path
       style="fill:#4d4d4d;fill-opacity:1;stroke-width:0.264583"
       d="m 52.550496,5.6311298 c 0.35164,0.850111 0.76421,1.053094 2.05294,1.010092 3.59719,-0.120028 7.21875,1.215235 9.619,3.5465062 2.12251,2.06153 3.28853,4.380715 4.06828,8.091681 0.15674,0.74591 0.32398,0.96091 0.91606,1.17764 0.58356,0.21362 0.85397,0.13174 1.39128,-0.42131 0.60845,-0.62617 0.63453,-0.83782 0.29713,-2.411447 -0.74727,-3.485607 -2.96216,-7.2451152 -5.49099,-9.3202862 -2.51815,-2.066409 -6.33819,-3.427388 -9.93655,-3.540146 -1.74722,-0.05475 -2.06672,0.02417 -2.56729,0.634182 -0.39356,0.479427 -0.50256,0.86395 -0.34986,1.233088 z m 0.67625,6.5321632 c 0.0821,0.83309 0.70946,1.249089 1.95037,1.293258 3.20954,0.114225 5.45048,1.953156 6.18895,5.078678 0.28551,1.20842 0.81596,1.74253 1.64905,1.66046 1.45712,-0.14358 1.61333,-2.21058 0.36028,-4.767507 -0.82537,-1.684271 -3.73019,-4.067982 -5.54317,-4.548755 -2.75229,-0.729887 -4.74905,-0.173261 -4.60548,1.283866 z"
       id="path5075-7-88-5"
       sodipodi:nodetypes="ssssssssssssssssss" />
    <path
       style="fill:#4d4d4d;fill-opacity:1;stroke-width:0.459356"
       d="m 35.702976,73.139919 -1.55937,-5.16779 -3.1239,-0.7669 c -3.7865,-0.92956 -8.34551,-3.05908 -10.52389,-4.91572 l -1.60775,-1.37031 1.19375,-1.21533 1.19372,-1.21531 2.78999,1.80327 c 2.91203,1.88212 7.52149,3.52617 11.24457,4.01057 l 2.18194,0.28388 0.0482,4.45059 c 0.0266,2.44781 0.11339,5.5358 0.19276,6.8622 0.0795,1.32638 0.006,2.41094 -0.16319,2.41009 -0.16912,-8.9e-4 -1.00932,-2.32698 -1.86698,-5.16924 z m 5.46389,-7.14036 c 0,-1.74663 0.0753,-1.84083 1.71986,-2.14931 2.89686,-0.54346 7.12923,-2.28166 9.65003,-4.42018 l 3.87707,-3.2891 c 1.00335,0.88206 6.12305,-12.04734 2.43828,2.46808 -0.44797,0.68536 -0.53675,0.67587 -3.15597,3.18842 l -2.32656,1.52998 c -2.72699,1.79332 -7.48245,3.73362 -10.25044,4.18231 l -1.95227,0.31648 z m -25.72416,-8.50315 -1.18819,-1.55779 c -1.75005,-2.29441 -4.29444,-8.06177 -4.62699,-10.48787 l -0.28982,-2.11458 1.70232,0.14653 c 1.67409,0.1441 1.72097,0.20201 2.82503,3.48935 1.19845,3.56835 2.83441,6.38847 4.71707,8.49822 l 2.69341,3.01829 c 4.29242,3.54576 2.52445,8.39692 -5.83283,-0.99215 z m 42.19025,-0.12142 -1.21913,-1.23402 1.55801,-2.16867 c 2.33463,-3.24962 3.81105,-6.82574 4.43369,-10.73908 l 0.55823,-3.50848 h 6.78679 c 3.73272,0 6.78678,0.0974 6.78678,0.21628 0,0.11893 -2.33578,0.95196 -5.19064,1.85109 l -5.19064,1.63478 -0.53308,2.54156 c -0.68281,3.25528 -3.27723,8.6464 -5.242,10.89265 l -1.52886,1.74795 z M 0.51382568,38.631499 c 0.75792002,-0.32885 2.82504002,-1.06773 4.59355002,-1.64197 3.67809,-1.19426 4.1346403,-1.61837 4.5520703,-4.22876 0.36593,-2.2885 3.05107,-8.22602 4.69439,-10.38053 l 1.19184,-1.56255 1.27261,1.21924 1.27262,1.21925 -1.55328,2.57949 c -2.14435,3.561 -3.39275,7.10113 -3.71278,10.52841 l -0.27093,2.9013 -6.7091003,-0.018 c -5.91827003,-0.0156 -6.54663003,-0.0885 -5.33099002,-0.61592 z M 62.553386,35.475679 c -0.0958,-0.31581 -0.41521,-1.60774 -0.70956,-2.87097 -0.66277,-2.8443 -2.68373,-7.03649 -4.94776,-9.43088 l -3.09688,-3.27519 c 1.12848,-3.679218 1.50506,-2.73329 2.59363,-2.4527 l 1.1594,0.95596 c 5.34733,4.40898 7.66509,11.6578 8.32284,15.27657 l 0.43101,2.37141 h -1.78914 c -1.03206,0 -1.86292,-0.24298 -1.96354,-0.5742 z m -44.01153,-17.71716 2.19457,-1.675177 c 2.83216,-2.16182 4.77244,-3.132503 8.65039,-4.327617 4.51421,-1.391161 4.8897,-1.332409 4.8897,0.765226 v 1.735682 l -3.17101,0.816877 c -3.38729,0.872589 -7.65655,3.186129 -9.94252,5.387919 -0.76997,0.74163 -2.9505,2.79475 -3.07208,2.79475 -3.73707,-0.87594 -4.96162,-0.30367 0.45095,-5.49766 z m 33.41989,0.82106 c -2.663,-1.911745 -7.11236,-3.596227 -11.04334,-4.180876 L 37.492036,13.88909 V 6.7330238 c 0,-3.935836 0.17187,-6.95967303 0.38201,-6.71966803 0.2101,0.240023 1.05453,2.71020203 1.8765,5.48931003 l 1.49452,5.0529282 3.17435,0.77408 c 3.6184,0.882365 8.35278,3.085401 10.50825,4.889747 l 1.46515,1.226518 -1.29681,1.22635 -1.29682,1.22635 z"
       id="path13755-7"
       sodipodi:nodetypes="ccsscccsscsssscssscccsscscsscsssccccsscssscssccsssscccssccsssssccsscsscssscssccsscssscsscccs" />
  </g>
</svg>
